<svg xmlns="http://www.w3.org/2000/svg" viewBox="0 0 800 800" preserveAspectRatio="xMidYMid slice" role="img" aria-label="Anjin Global pet supplement soft chews — abstract composition">
  <defs>
    <linearGradient id="bg-hero-v2" x1="0" y1="0" x2="1" y2="1">
      <stop offset="0" stop-color="#3D5A47"/>
      <stop offset="1" stop-color="#1F3D2D"/>
    </linearGradient>
    <radialGradient id="chew-glow" cx="0.35" cy="0.3" r="0.7">
      <stop offset="0" stop-color="#E8C5A0"/>
      <stop offset="1" stop-color="#C8553D"/>
    </radialGradient>
    <radialGradient id="chew-cream" cx="0.35" cy="0.3" r="0.7">
      <stop offset="0" stop-color="#FBF8F1"/>
      <stop offset="1" stop-color="#EFE9D9"/>
    </radialGradient>
    <radialGradient id="chew-teal" cx="0.35" cy="0.3" r="0.7">
      <stop offset="0" stop-color="#5FCFB4"/>
      <stop offset="1" stop-color="#00A884"/>
    </radialGradient>
    <filter id="grain" x="0" y="0" width="100%" height="100%">
      <feTurbulence type="fractalNoise" baseFrequency="0.85" numOctaves="2" stitchTiles="stitch"/>
      <feColorMatrix values="0 0 0 0 1   0 0 0 0 1   0 0 0 0 1   0 0 0 0.06 0"/>
      <feComposite in2="SourceGraphic" operator="in"/>
    </filter>
  </defs>

  <rect width="800" height="800" fill="url(#bg-hero-v2)"/>

  <g>
    <circle cx="200" cy="180" r="2" fill="#E8C5A0" opacity="0.4"/>
    <circle cx="620" cy="120" r="3" fill="#5FCFB4" opacity="0.3"/>
    <circle cx="700" cy="640" r="2" fill="#E8C5A0" opacity="0.4"/>
    <circle cx="120" cy="700" r="2" fill="#5FCFB4" opacity="0.4"/>
  </g>

  <g>
    <ellipse cx="280" cy="360" rx="110" ry="92" transform="rotate(-12 280 360)" fill="url(#chew-cream)"/>
    <ellipse cx="280" cy="360" rx="110" ry="92" transform="rotate(-12 280 360)" fill="none" stroke="#1F3D2D" stroke-width="1" opacity="0.15"/>
  </g>

  <g>
    <ellipse cx="500" cy="280" rx="110" ry="92" transform="rotate(8 500 280)" fill="url(#chew-glow)"/>
    <ellipse cx="500" cy="280" rx="110" ry="92" transform="rotate(8 500 280)" fill="none" stroke="#1F3D2D" stroke-width="1" opacity="0.2"/>
  </g>

  <g>
    <ellipse cx="600" cy="500" rx="110" ry="92" transform="rotate(-4 600 500)" fill="url(#chew-teal)"/>
    <ellipse cx="600" cy="500" rx="110" ry="92" transform="rotate(-4 600 500)" fill="none" stroke="#1F3D2D" stroke-width="1" opacity="0.2"/>
  </g>

  <g>
    <ellipse cx="350" cy="560" rx="110" ry="92" transform="rotate(14 350 560)" fill="url(#chew-cream)"/>
    <ellipse cx="350" cy="560" rx="110" ry="92" transform="rotate(14 350 560)" fill="none" stroke="#1F3D2D" stroke-width="1" opacity="0.15"/>
  </g>

  <g fill="#C8553D" opacity="0.9">
    <circle cx="245" cy="335" r="5"/>
    <circle cx="285" cy="380" r="4"/>
    <circle cx="310" cy="350" r="3"/>
    <circle cx="320" cy="540" r="5"/>
    <circle cx="360" cy="585" r="4"/>
    <circle cx="380" cy="555" r="3"/>
  </g>
  <g fill="#FBF8F1" opacity="0.95">
    <circle cx="475" cy="260" r="4"/>
    <circle cx="510" cy="295" r="3"/>
    <circle cx="535" cy="270" r="3"/>
    <circle cx="580" cy="475" r="4"/>
    <circle cx="615" cy="510" r="3"/>
    <circle cx="640" cy="485" r="3"/>
  </g>

  <rect width="800" height="800" fill="white" filter="url(#grain)" opacity="0.5"/>
</svg>
